<?xml version="1.0" encoding="iso-8859-1"?>
<!-- Generator: Adobe Illustrator 19.0.0, SVG Export Plug-In . SVG Version: 6.00 Build 0)  -->
<svg version="1.1" id="Capa_1" xmlns="http://www.w3.org/2000/svg" xmlns:xlink="http://www.w3.org/1999/xlink" x="0px" y="0px"
	 viewBox="0 0 490 490" style="enable-background:new 0 0 490 490;" xml:space="preserve">
<g id="line_22_">
	<polygon points="444.108,142.069 421.569,52.231 390.668,52.231 367.163,140.569 347.793,52.231 329.418,52.231 321.195,52.231 
		303.264,52.231 283.511,142.069 260.971,52.231 230.086,52.231 206.566,140.569 187.195,52.231 168.805,52.231 160.613,52.231 
		142.651,52.231 122.898,142.069 100.373,52.231 69.473,52.231 45.968,140.569 26.583,52.231 0,52.231 30.702,180.841 
		58.861,180.841 84.387,84.693 110.02,180.841 137.568,180.841 164.671,69.243 191.314,180.841 219.474,180.841 245,84.693 
		270.633,180.841 298.18,180.841 325.268,69.289 351.897,180.841 380.056,180.841 405.582,84.693 431.215,180.841 458.763,180.841 
		490,52.231 463.862,52.231 	"/>
	<path d="M444.124,235.001c-25.342,0-45.876,20.534-45.876,45.876c0,5.865,1.21,11.438,3.216,16.599l-62.613,54.65
		c-6.661-3.767-14.256-6.094-22.448-6.094c-10.933,0-20.825,3.981-28.711,10.351l-104.263-65.599
		c0.704-3.185,1.133-6.477,1.133-9.892c0-25.342-20.534-45.876-45.876-45.876s-45.876,20.534-45.876,45.876
		c0,8.713,2.573,16.783,6.784,23.719l-37.286,44.575c-5.114-1.975-10.612-3.154-16.43-3.154C20.534,346.017,0,366.551,0,391.893
		c0,25.342,20.534,45.876,45.876,45.876c25.342,0,45.876-20.534,45.876-45.876c0-8.315-2.389-16.002-6.247-22.724l37.853-45.233
		c4.823,1.715,9.923,2.818,15.328,2.818c10.78,0,20.565-3.874,28.389-10.106l104.462,65.721c-0.643,3.078-1.011,6.247-1.011,9.509
		c0,25.342,20.534,45.876,45.876,45.876c25.342,0,45.876-20.534,45.876-45.876c0-5.926-1.21-11.546-3.262-16.752l62.521-54.558
		c6.692,3.813,14.333,6.171,22.586,6.171c25.342,0,45.876-20.534,45.876-45.876C490,255.52,469.466,235.001,444.124,235.001z"/>
</g>
<g>
</g>
<g>
</g>
<g>
</g>
<g>
</g>
<g>
</g>
<g>
</g>
<g>
</g>
<g>
</g>
<g>
</g>
<g>
</g>
<g>
</g>
<g>
</g>
<g>
</g>
<g>
</g>
<g>
</g>
</svg>
